<svg height="512pt" viewBox="-39 0 512 512" width="512pt" xmlns="http://www.w3.org/2000/svg"><path d="m413.125 58.644531h-77.910156v-38.644531c0-11.046875-8.953125-20-20-20h-197.378906c-11.046876 0-20 8.953125-20 20v38.644531h-77.835938c-11.046875 0-20 8.953125-20 20v59.433594c0 76.046875 61.871094 137.917969 137.917969 137.917969h.832031c15.515625 25.523437 35.113281 48.644531 57.773438 68.054687v50.652344c-20.289063 2.785156-39.832032 9.773437-57.394532 20.625-42.632812 26.351563-55.617187 63.425781-58.453125 67.726563-6.636719 13.273437 3.019531 28.945312 17.886719 28.945312h236c14.835938 0 24.535156-15.648438 17.886719-28.945312-2.648438-4.019532-15.886719-41.414063-58.453125-67.726563-17.582032-10.863281-37.15625-17.855469-57.472656-20.632813v-50.644531c22.660156-19.410156 42.257812-42.53125 57.777343-68.054687h.90625c76.046875 0 137.917969-61.871094 137.917969-137.917969v-59.433594c0-11.046875-8.953125-20-20-20zm-373.125 79.433594v-39.433594h57.835938v31.148438c0 35.480469 6.882812 71.09375 19.96875 104.121093-44.375-9.300781-77.804688-48.738281-77.804688-95.835937zm259.09375 333.921875h-165.066406c20.085937-24.292969 50.003906-38.667969 82.535156-38.667969s62.449219 14.375 82.53125 38.667969zm-82.570312-163.605469c-50.207032-45.796875-78.6875-110.042969-78.6875-178.601562 0-7.363281 0-83.6875 0-89.792969h157.378906v89.792969c0 70.410156-29.886719 134.085937-78.691406 178.601562zm176.601562-170.316406c0 47.128906-33.46875 86.585937-77.886719 95.855469 13.089844-33.035156 19.976563-68.65625 19.976563-104.140625v-31.148438h57.910156zm0 0"/><path d="m210.761719 77.402344-26.398438 16c-10.339843 6.203125-5.515625 23 4 23 3.863281 0 6.105469-2.601563 10.800781-5.199219v101.796875c0 12.800781 31.199219 12.800781 31.199219 0v-127.199219c0-8.132812-13.605469-12.144531-19.601562-8.398437zm0 0"/></svg>