<svg height="512pt" viewBox="0 -36 512 512" width="512pt" xmlns="http://www.w3.org/2000/svg"><path d="m512 156.359375v-35.570313c0-9.609374-7.820312-17.429687-17.429688-17.429687-6.15625 0-11.941406-2.394531-16.292968-6.738281-4.351563-4.359375-6.75-10.148438-6.75-16.300782v-62.632812c0-9.753906-7.933594-17.6875-17.6875-17.6875h-21.332032c-9.753906 0-17.6875 7.9375-17.6875 17.6875v36.660156c0 22.742188-18.136718 41.546875-40.425781 41.921875-11.082031.171875-21.613281-4.003906-29.535156-11.796875-7.925781-7.796875-12.289063-18.210937-12.289063-29.324218v-37.460938c0-9.753906-7.9375-17.6875-17.691406-17.6875h-21.328125c-9.753906 0-17.691406 7.9375-17.691406 17.6875v22.601562c0 4.144532 3.359375 7.5 7.5 7.5 4.144531 0 7.5-3.355468 7.5-7.5v-22.601562c0-1.480469 1.207031-2.6875 2.691406-2.6875h21.328125c1.484375 0 2.691406 1.207031 2.691406 2.6875v37.460938c0 15.167968 5.957032 29.378906 16.769532 40.015624 10.8125 10.636719 25.125 16.324219 40.304687 16.105469 30.425781-.515625 55.175781-26.050781 55.175781-56.921875v-36.660156c0-1.480469 1.207032-2.6875 2.6875-2.6875h21.332032c1.480468 0 2.6875 1.207031 2.6875 2.6875v62.632812c0 10.152344 3.953125 19.707032 11.144531 26.90625 7.191406 7.179688 16.742187 11.132813 26.898437 11.132813 1.339844 0 2.429688 1.089844 2.429688 2.429687v30.988282l-123.308594 59.160156-123.300781-59.15625v-30.992188c0-.828124.386719-1.390624.726563-1.730468.261718-.261719.828124-.699219 1.703124-.699219 20.976563 0 38.039063-17.0625 38.039063-38.039063v-10.03125c0-4.140624-3.355469-7.5-7.5-7.5-4.140625 0-7.5 3.359376-7.5 7.5v10.03125c0 12.703126-10.335937 23.039063-23.039063 23.039063-4.671874 0-9.054687 1.816406-12.324218 5.105469-3.292969 3.292968-5.105469 7.671875-5.105469 12.324218v35.453126c-.003906.167968-.003906.335937 0 .503906v124.621094l-38.570313 23.117187c-5.433593-3.117187-11.652343-4.796875-17.960937-4.796875h-44.75v-129.5625h44.75c19.878906 0 36.050781-16.171875 36.050781-36.050781 0-19.878907-16.171875-36.050781-36.050781-36.050781h-7.855469v-8.191407c0-16.230469-13.207031-29.433593-29.4375-29.433593h-7.457031v-14.699219c0-8.546875-6.953125-15.5-15.5-15.5h-22.308594c-8.546875 0-15.5 6.953125-15.5 15.5v14.699219h-7.457031c-16.230469 0-29.4375 13.203124-29.4375 29.433593v8.191407h-7.855469c-3.292969 0-6.554687.445312-9.699219 1.320312-3.988281 1.113281-6.324218 5.25-5.210937 9.242188 1.113281 3.988281 5.246094 6.316406 9.242187 5.207031 1.832032-.511719 3.738282-.769531 5.667969-.769531h142.808594c11.609375 0 21.050781 9.441406 21.050781 21.050781 0 11.605469-9.441406 21.046875-21.050781 21.046875h-142.808594c-11.609375 0-21.050781-9.441406-21.050781-21.046875 0-1.191407.101562-2.390625.296875-3.554688.691406-4.085937-2.058594-7.957031-6.140625-8.648437-4.082031-.695313-7.957031 2.058594-8.648438 6.144531-.335937 1.992187-.507812 4.03125-.507812 6.058594 0 19.878906 16.171875 36.050781 36.050781 36.050781h44.75v129.5625h-44.75c-19.878906 0-36.050781 16.171875-36.050781 36.050781 0 9.617188 3.746094 18.671875 10.5625 25.5 6.816406 6.804688 15.871094 10.550781 25.488281 10.550781h7.859375v8.1875c0 16.234376 13.203125 29.441407 29.429688 29.441407h7.460937v14.699219c0 8.546874 6.953125 15.5 15.5 15.5h22.308594c8.546875 0 15.5-6.953126 15.5-15.5v-14.699219h.296875c1.550781 2.035156 3.257812 3.96875 5.121094 5.785156 10.074218 9.839844 23.140625 14.847656 36.457031 14.847656h270.394531c15.789063 0 28.636719-12.847656 28.636719-28.640625v-44.421875h4.003906c18.1875 0 32.980469-14.796875 32.980469-32.980469v-167.390624c0-.085938 0-.171876 0-.257813zm-416.199219-110.660156c0-.273438.222657-.5.5-.5h22.308594c.277344 0 .5.226562.5.5v14.699219h-23.308594zm-36.894531 52.324219v-8.191407c0-7.960937 6.476562-14.433593 14.4375-14.433593h14.800781.15625.152344 38 .15625.15625 14.800781c7.960938 0 14.4375 6.472656 14.4375 14.433593v8.191407zm255.617188 166.40625c3.351562 0 6.367187 2.117187 7.511718 5.265624 8.707032 24.023438 31.726563 40.164063 57.273438 40.164063 26.09375 0 49.273437-16.597656 57.675781-41.300781.839844-2.46875 3.160156-4.128906 5.769531-4.128906h4.660156c6.949219 0 12.601563 5.652343 12.601563 12.601562v94.484375h-103.835937l-24.601563-35.25c-2.367187-3.394531-7.046875-4.226563-10.441406-1.855469-3.394531 2.367188-4.226563 7.042969-1.859375 10.441406l18.609375 26.664063h-17.996094l-46.328125-66.394531 12.691406-7.609375 15.863282 22.738281c1.460937 2.089844 3.789062 3.210938 6.160156 3.210938 1.480468 0 2.976562-.4375 4.28125-1.351563 3.398437-2.371094 4.230468-7.046875 1.863281-10.441406l-15.964844-22.882813c4.242188-4.78125 6.707031-11.039062 6.707031-17.570312v-6.785156zm-30.402344 107.085937-35.78125-51.277344 12.324218-7.386719 40.933594 58.664063zm-36.292969 0-25.078125-35.9375 12.691406-7.605469 30.386719 43.546875h-18zm-69.460937-38.484375c.382812.695312.820312 1.367188 1.308593 2.003906 4.996094 6.5 12.566407 9.980469 20.273438 9.980469 3.285156 0 6.597656-.632813 9.746093-1.9375l19.84375 28.4375h-90.214843c1.84375-10.542969 8.210937-20.003906 17.53125-25.585937zm111.796874-67v5.1875c0 3.941406-2.078124 7.648438-5.429687 9.714844-.132813.078125-.265625.15625-.394531.242187l-25.179688 15.089844c-.128906.074219-.257812.152344-.386718.234375l-24.957032 14.957031c-.046875.027344-.097656.058594-.144531.089844l-28.3125 16.96875c-4.597656 2.757813-10.523437 1.628906-13.792969-2.621094-.039062-.050781-.160156-.210937-.109375-.472656.042969-.230469.179688-.335937.25-.382813l8.589844-5.148437c.097656-.054687.199219-.117187.296875-.179687l89.234375-53.488282c.113281-.066406.222656-.128906.335937-.191406zm-194.363281-95.90625h23.308594v129.5625h-23.308594zm-36.890625 209.855469v-8.191407h42.371094c4.140625 0 7.5-3.355468 7.5-7.5 0-4.140624-3.359375-7.5-7.5-7.5h-65.230469c-5.617187 0-10.90625-2.1875-14.882812-6.15625-3.976563-3.988281-6.167969-9.277343-6.167969-14.894531 0-11.605469 9.441406-21.050781 21.050781-21.050781h142.808594c.304687 0 .605469.007812.90625.019531l-30.621094 18.355469c-15.648437 9.378906-25.367187 26.535156-25.367187 44.78125 0 4.984375.703125 9.808594 2.011718 14.375.015626.058594.035157.117188.050782.175781.011718.039063.023437.078125.035156.117188.183594.640625.382812 1.273437.59375 1.90625h-53.128906c-7.957032 0-14.429688-6.476563-14.429688-14.4375zm60.199219 44.136719c0 .273437-.226563.5-.5.5h-22.308594c-.273437 0-.5-.226563-.5-.5v-14.699219h23.308594zm340.90625-22.707032c0 7.523438-6.117187 13.640625-13.640625 13.640625-173 0-270.585938.007813-271.382812-.011719-17.09375-.449218-31.351563-12.484374-35.195313-28.523437h103.933594c.066406.003906.128906.003906.195312.003906.066407 0 .132813 0 .199219-.003906h35.894531c.066407.003906.128907.003906.195313.003906s.132812 0 .199218-.003906h35.375c.066407.003906.132813.003906.195313.003906.066406 0 .132813 0 .199219-.003906h35.894531c.066406.003906.128906.003906.195313.003906.066406 0 .132812 0 .199218-.003906h107.542969zm19.003906-59.421875h-4.003906v-64.957031c0-15.21875-12.382813-27.601562-27.601563-27.601562h-4.660156c-9.035156 0-17.058594 5.746093-19.972656 14.296874-6.332031 18.621094-23.804688 31.128907-43.472656 31.128907-19.261719 0-36.609375-12.164063-43.175782-30.269531-3.285156-9.066407-11.96875-15.15625-21.613281-15.15625-16.71875.429687-23.089843-1.640626-32.402343 3.929687l-31.730469 19.015625v-103.957031l120.058593 57.601562c1.027344.492188 2.136719.738281 3.246094.738281s2.21875-.246093 3.242188-.738281l120.0625-57.605469v155.59375c.003906 9.914063-8.0625 17.980469-17.976563 17.980469zm0 0"/><path d="m365.871094 132.144531h-5.039063c-4.144531 0-7.5 3.355469-7.5 7.5 0 4.140625 3.355469 7.5 7.5 7.5h1.585938v25.941407h-.914063c-4.144531 0-7.5 3.355468-7.5 7.5 0 4.144531 3.355469 7.5 7.5 7.5h16.828125c4.144531 0 7.5-3.355469 7.5-7.5 0-4.144532-3.355469-7.5-7.5-7.5h-.914062v-29.394532c0-6.367187-5.179688-11.546875-11.546875-11.546875zm0 0"/></svg>