<svg height="480pt" viewBox="0 0 480 480" width="480pt" xmlns="http://www.w3.org/2000/svg"><path d="m240 0c-4.417969 0-8 3.582031-8 8v32c0 4.417969 3.582031 8 8 8s8-3.582031 8-8v-23.800781c121.574219 4.3125 217.480469 104.867187 216.042969 226.507812s-99.695313 219.898438-221.335938 221.335938-222.195312-94.46875-226.507812-216.042969h23.800781c4.417969 0 8-3.582031 8-8s-3.582031-8-8-8h-32c-4.417969 0-8 3.582031-8 8 0 132.546875 107.453125 240 240 240s240-107.453125 240-240-107.453125-240-240-240zm0 0"/><path d="m347.328125 120.136719c-22.015625-1.839844-41.355469 14.519531-43.191406 36.535156-1.839844 22.015625 14.519531 41.355469 36.535156 43.191406 1.128906.097657 2.238281.136719 3.351563.136719 20.777343-.039062 38.078124-15.960938 39.832031-36.664062 1.816406-22.007813-14.523438-41.332032-36.527344-43.199219zm-5.328125 63.785156c-12.839844-1.050781-22.558594-12.050781-22.023438-24.921875.539063-12.871094 11.140626-23.023438 24.023438-23 .664062 0 1.335938 0 2.015625.078125 13.210937 1.105469 23.023437 12.710937 21.921875 25.921875-1.105469 13.210938-12.710938 23.023438-25.921875 21.921875zm0 0"/><path d="m258.503906 149.726562c-9.496094-9.0625-24.4375-9.0625-33.9375 0l-53.734375 53.746094c-7.75 7.820313-7.722656 20.4375.066407 28.222656 7.785156 7.785157 20.402343 7.808594 28.222656.058594l42.398437-42.402344 31.601563 31.585938c7.6875 7.699219 20.144531 7.761719 27.910156.140625 3.882812-3.679687 6.113281-8.777344 6.183594-14.125.074218-5.351563-2.023438-10.503906-5.808594-14.289063zm31.273438 60c-1.511719 1.417969-3.875 1.371094-5.328125-.101562l-37.25-37.273438c-3.125-3.121093-8.1875-3.121093-11.3125 0l-48.070313 48.089844c-1.5625 1.5625-4.097656 1.566406-5.660156.003906s-1.566406-4.097656-.003906-5.660156l53.734375-53.746094c3.125-3.121093 8.1875-3.121093 11.3125 0l42.921875 42.914063c.738281.734375 1.144531 1.742187 1.117187 2.78125-.046875 1.152344-.578125 2.230469-1.460937 2.96875zm0 0"/><path d="m249.601562 394.792969h.101563c5.304687.015625 10.390625-2.09375 14.128906-5.855469l42.328125-42.328125c9.375-9.375 9.375-24.574219 0-33.945313l-53.726562-53.734374c-7.914063-7.558594-20.371094-7.558594-28.28125 0-7.808594 7.808593-7.808594 20.46875 0 28.277343l42.398437 42.402344-31.015625 31.015625c-7.707031 7.761719-7.777344 20.273438-.152344 28.117188 3.730469 3.855468 8.855469 6.035156 14.21875 6.050781zm-2.730468-22.792969 36.671875-36.671875c3.125-3.125 3.125-8.1875 0-11.3125l-48.070313-48.085937c-1.039062-1.007813-1.457031-2.492188-1.089844-3.890626.363282-1.398437 1.457032-2.492187 2.855469-2.859374 1.398438-.363282 2.886719.050781 3.890625 1.09375l53.726563 53.726562c3.125 3.125 3.125 8.1875 0 11.3125l-42.335938 42.289062c-.742187.75-1.753906 1.171876-2.808593 1.167969-1.09375.066407-2.15625-.382812-2.871094-1.210937-1.488282-1.558594-1.476563-4.015625.03125-5.558594zm0 0"/><path d="m380 296c11.046875 0 20-8.953125 20-20s-8.953125-20-20-20h-44v-24c0-2.949219-1.625-5.664062-4.226562-7.054688-2.601563-1.390624-5.757813-1.238281-8.214844.398438l-24 16c-2.222656 1.484375-3.558594 3.980469-3.558594 6.65625v24c0 13.253906 10.746094 24 24 24zm-68-24v-19.71875l8-5.328125v17.046875c0 4.417969 3.582031 8 8 8h52c2.210938 0 4 1.789062 4 4s-1.789062 4-4 4h-60c-4.417969 0-8-3.582031-8-8zm0 0"/><path d="m233.65625 307.433594c-6.207031-6.21875-13.527344-13.714844-15.367188-15.839844-.34375-.566406-.75-1.085938-1.21875-1.554688-3.121093-3.113281-8.171874-3.113281-11.292968 0l-87.3125 87.328126c-7.8125 7.8125-7.8125 20.476562 0 28.289062s20.476562 7.8125 28.289062 0l86.902344-86.914062c3.121094-3.121094 3.121094-8.1875 0-11.308594zm-98.214844 86.902344c-1.5625 1.5625-4.097656 1.566406-5.660156.003906-1.566406-1.5625-1.566406-4.097656-.003906-5.660156l81.328125-81.320313c1.597656 1.679687 3.453125 3.578125 5.597656 5.71875zm0 0"/><path d="m205.265625 51.039062c.46875 0 .9375-.039062 1.398437-.117187 4.351563-.769531 7.257813-4.921875 6.488282-9.273437l-5.601563-31.511719c-.859375-4.253907-4.957031-7.042969-9.226562-6.289063-4.273438.753906-7.167969 4.773438-6.523438 9.0625l5.597657 31.523438c.675781 3.816406 3.988281 6.601562 7.867187 6.605468zm0 0"/><path d="m164.078125 54.800781c1.152344 3.15625 4.152344 5.261719 7.515625 5.261719.933594.003906 1.859375-.160156 2.734375-.488281 4.15625-1.5 6.304687-6.089844 4.800781-10.246094l-10.960937-30.070313c-1.570313-4.066406-6.105469-6.128906-10.199219-4.636718-4.09375 1.488281-6.242188 5.984375-4.832031 10.105468zm0 0"/><path d="m133.070312 70.792969c1.421876 2.496093 4.066407 4.039062 6.9375 4.046875 2.871094.003906 5.527344-1.527344 6.957032-4.015625 1.429687-2.492188 1.414062-5.554688-.035156-8.03125l-16-27.714844c-2.226563-3.792969-7.09375-5.078125-10.902344-2.878906s-5.128906 7.058593-2.957032 10.878906zm0 0"/><path d="m105.320312 91.9375c2.839844 3.390625 7.886719 3.835938 11.28125 1 3.390626-2.839844 3.835938-7.890625 1-11.28125l-20.601562-24.519531c-2.882812-3.203125-7.789062-3.546875-11.089844-.777344-3.300781 2.773437-3.8125 7.660156-1.15625 11.054687zm0 0"/><path d="m81.648438 117.601562c3.390624 2.726563 8.34375 2.238282 11.140624-1.097656 2.796876-3.332031 2.414063-8.292968-.859374-11.160156l-24.503907-20.566406c-3.394531-2.726563-8.34375-2.242188-11.144531 1.09375-2.796875 3.335937-2.414062 8.292968.863281 11.160156zm0 0"/><path d="m35.089844 130.929688 27.710937 16c2.476563 1.449218 5.539063 1.464843 8.03125.035156 2.488281-1.429688 4.019531-4.085938 4.015625-6.957032-.007812-2.871093-1.550781-5.515624-4.046875-6.9375l-27.710937-16c-3.824219-2.171874-8.683594-.851562-10.882813 2.957032s-.914062 8.675781 2.882813 10.902344zm0 0"/><path d="m19.257812 168.167969 30.070313 10.945312c.875.324219 1.800781.488281 2.734375.488281 3.886719 0 7.210938-2.785156 7.886719-6.613281.675781-3.824219-1.496094-7.582031-5.148438-8.910156l-30.074219-10.941406c-4.121093-1.410157-8.617187.738281-10.105468 4.832031-1.492188 4.09375.570312 8.628906 4.636718 10.199219zm0 0"/><path d="m10.136719 207.59375 31.511719 5.558594c.460937.078125.929687.117187 1.398437.121094 4.152344 0 7.613281-3.171876 7.972656-7.308594.363281-4.132813-2.5-7.855469-6.585937-8.574219l-31.523438-5.597656c-4.351562-.765625-8.5 2.140625-9.265625 6.492187-.765625 4.351563 2.140625 8.5 6.492188 9.265625zm0 0"/></svg>